<svg width="90" height="90" viewBox="0 0 90 90" fill="none" xmlns="http://www.w3.org/2000/svg">
<path fill-rule="evenodd" clip-rule="evenodd" d="M88.0679 43.0123L88.0678 43.0124C87.8477 43.0957 87.585 43.1952 87.2257 43.3065C87.7459 43.4667 88.0662 43.5715 88.3865 43.6762C88.3767 45.6328 88.1411 45.8542 86.3962 46.358C86.0848 46.4494 85.7805 46.5619 85.4746 46.675L85.4745 46.675C85.0404 46.8354 84.6029 46.9971 84.1372 47.1015C83.6472 47.2227 83.1588 47.3455 82.6714 47.4681L82.6697 47.4685L82.6695 47.4685C80.7102 47.9613 78.7662 48.4502 76.7946 48.8089C75.0081 49.1896 73.2853 48.5367 71.6779 47.6131C69.749 46.5048 67.7109 46.067 65.5636 46.2999C65.3648 46.3245 65.0433 46.1397 64.8421 46.0043C64.5611 45.8627 64.2837 45.961 63.9709 46.3362C63.8923 46.41 63.7778 46.4455 63.6633 46.481C63.606 46.4987 63.5488 46.5165 63.496 46.539C63.1412 46.6306 62.7839 46.7244 62.4249 46.8187L62.4235 46.8191L62.4234 46.8191C61.3375 47.1044 60.2348 47.394 59.1314 47.6385C58.7952 47.7091 58.4285 47.6896 58.0325 47.6686C57.7739 47.6548 57.5028 47.6404 57.2197 47.65C57.4209 47.7855 57.5817 47.8778 57.7019 47.9271C57.6424 47.9425 57.6028 47.9594 57.5633 47.9763C57.5237 47.9932 57.4841 48.0101 57.4246 48.0254C55.281 48.4983 53.0858 48.2082 50.9998 47.2474C48.1114 45.9049 45.445 46.0576 42.7922 47.0901C42.1731 47.329 41.5249 47.5229 40.8783 47.7163C39.9946 47.9806 39.114 48.244 38.3147 48.6203C38.0488 48.7249 37.7178 48.7603 37.4231 48.7919C37.0597 48.8309 36.7514 48.8639 36.6877 49.0134C36.4181 49.5177 36.0216 49.5103 35.6718 49.5038C35.5693 49.5019 35.4709 49.5001 35.3809 49.5112C33.4311 49.6396 31.7034 48.6667 30.1709 47.4293C29.3647 46.8075 28.5978 46.1488 27.8297 45.4102C26.5376 44.2713 25.1375 43.8831 23.5485 44.1593C21.5227 44.5215 19.784 45.4252 18.168 46.5382C17.9115 46.6981 17.625 46.8456 17.3385 46.9932C17.052 47.1407 16.7655 47.2882 16.509 47.4481C16.3566 47.5344 16.2043 47.6305 16.0504 47.7278C15.7655 47.9076 15.4749 48.0911 15.1666 48.2228C15.0412 48.2764 14.9175 48.3379 14.7926 48.4C14.2868 48.6516 13.761 48.9131 13.023 48.6957C12.3432 48.5231 11.5518 48.8612 10.9186 49.1316C9.75832 49.6583 8.51686 49.5361 7.29582 49.4158L7.29577 49.4158L7.29563 49.4158C6.93494 49.3803 6.57603 49.3449 6.22153 49.3265C5.86298 49.3227 5.50311 49.2324 5.14325 49.1422C4.90334 49.0821 4.66343 49.0219 4.42391 48.9873C2.5085 48.7589 1.53178 47.4048 0.78941 45.7494C0.541544 45.1709 1.24218 44.1068 1.95877 44.0825C3.27293 44.0646 4.58708 44.0467 5.9037 44.1887C10.0511 44.5105 13.6978 43.3553 16.9703 41.1724C18.0747 40.4591 19.2207 39.8689 20.4073 39.3218C23.6908 37.8589 26.7302 38.6539 29.4407 41.3807C30.0064 41.904 30.6113 42.3903 31.1758 42.8336C33.2728 44.5142 35.3367 44.0351 37.3956 43.2361C39.5736 42.4064 41.7921 41.6198 44.0523 40.9563C45.9162 40.4217 47.9101 40.5764 49.7961 41.4817C52.8453 42.9166 55.7116 42.8194 58.7252 41.9346C60.9057 41.2649 63.2518 41.0075 65.5586 40.787C67.7059 40.5541 69.7465 41.1518 71.7159 42.3032C73.4043 43.313 75.0817 43.6029 76.8265 43.0991C79.5775 42.2952 82.4619 42.1793 85.3343 42.064C85.7328 42.048 86.131 42.032 86.5287 42.0141C86.9594 41.9858 87.44 42.1046 87.8945 42.2169L87.8947 42.217C88.0279 42.2499 88.159 42.2823 88.2858 42.3102C88.2887 42.4976 88.3042 42.6175 88.3171 42.7168L88.3171 42.7168C88.3261 42.787 88.3339 42.847 88.3349 42.9132C88.251 42.943 88.1635 42.9761 88.0679 43.0123ZM7.56138 45.7953L7.56506 46.0353L7.56468 46.0352L7.56458 46.0352C6.68694 45.8996 5.80929 45.764 4.92462 45.635C5.79549 45.6708 6.67214 45.7264 7.56138 45.7953ZM4.92462 45.635C4.23329 45.6065 3.54559 45.5906 2.85814 45.5903L2.85446 45.3503C3.5509 45.4392 4.23987 45.5351 4.92462 45.635ZM68.8103 42.4374L68.8152 42.7573C67.8164 42.56 66.8188 42.4427 65.8617 42.3684L65.858 42.1285C66.3568 42.1871 66.8455 42.235 67.3342 42.2829C67.8228 42.3308 68.3115 42.3787 68.8103 42.4374Z" fill="#009A91"/>
</svg>
